<svg xmlns="http://www.w3.org/2000/svg" xmlns:xlink="http://www.w3.org/1999/xlink" width="394pt" height="388" viewBox="0 0 394 291"><title>Figure 1</title><desc>Creator: GL2PS 1.4.2, (C) 1999-2020 C. Geuzaine For: Octave CreationDate: Tue Dec 03 10:09:56 2024</desc><polygon fill="#fff" points="0 0 394 0 394 291 0 291"/><g><polygon fill="#fff" points="0 291 394 291 394 0 0 0" shape-rendering="crispEdges"/><clipPath id="cp00394291"><polygon points="0 291 394 291 394 0 0 0"/></clipPath><g clip-path="url(#cp00394291)"><polygon fill="#fff" points="51.238 259.33 356.697 259.33 356.697 22 51.238 22" shape-rendering="crispEdges"/><polyline fill="none" stroke="#262626" stroke-linecap="butt" stroke-linejoin="miter" stroke-width=".5" points="81.784 259.33 81.784 256.271"/><polyline fill="none" stroke="#262626" stroke-linecap="butt" stroke-linejoin="miter" stroke-width=".5" points="112.33 259.33 112.33 256.271"/><polyline fill="none" stroke="#262626" stroke-linecap="butt" stroke-linejoin="miter" stroke-width=".5" points="142.876 259.33 142.876 256.271"/><polyline fill="none" stroke="#262626" stroke-linecap="butt" stroke-linejoin="miter" stroke-width=".5" points="173.422 259.33 173.422 256.271"/><polyline fill="none" stroke="#262626" stroke-linecap="butt" stroke-linejoin="miter" stroke-width=".5" points="203.968 259.33 203.968 256.271"/><polyline fill="none" stroke="#262626" stroke-linecap="butt" stroke-linejoin="miter" stroke-width=".5" points="234.513 259.33 234.513 256.271"/><polyline fill="none" stroke="#262626" stroke-linecap="butt" stroke-linejoin="miter" stroke-width=".5" points="265.059 259.33 265.059 256.271"/><polyline fill="none" stroke="#262626" stroke-linecap="butt" stroke-linejoin="miter" stroke-width=".5" points="295.605 259.33 295.605 256.271"/><polyline fill="none" stroke="#262626" stroke-linecap="butt" stroke-linejoin="miter" stroke-width=".5" points="326.151 259.33 326.151 256.271"/><g font-family="FreeSans" font-size="10" font-style="normal" font-weight="normal" xml:space="preserve"><text x="0" y="0" fill="#262626" transform="translate(78.7841,274.841) rotate(-0,3,-8)">1</text></g><g font-family="FreeSans" font-size="10" font-style="normal" font-weight="normal" xml:space="preserve"><text x="0" y="0" fill="#262626" transform="translate(109.33,274.841) rotate(-0,3,-8)">2</text></g><g font-family="FreeSans" font-size="10" font-style="normal" font-weight="normal" xml:space="preserve"><text x="0" y="0" fill="#262626" transform="translate(139.876,274.841) rotate(-0,3,-8)">3</text></g><g font-family="FreeSans" font-size="10" font-style="normal" font-weight="normal" xml:space="preserve"><text x="0" y="0" fill="#262626" transform="translate(170.422,274.841) rotate(-0,3,-8)">4</text></g><g font-family="FreeSans" font-size="10" font-style="normal" font-weight="normal" xml:space="preserve"><text x="0" y="0" fill="#262626" transform="translate(200.968,274.841) rotate(-0,3,-8)">5</text></g><g font-family="FreeSans" font-size="10" font-style="normal" font-weight="normal" xml:space="preserve"><text x="0" y="0" fill="#262626" transform="translate(231.513,274.841) rotate(-0,3,-8)">6</text></g><g font-family="FreeSans" font-size="10" font-style="normal" font-weight="normal" xml:space="preserve"><text x="0" y="0" fill="#262626" transform="translate(262.059,274.841) rotate(-0,3,-8)">7</text></g><g font-family="FreeSans" font-size="10" font-style="normal" font-weight="normal" xml:space="preserve"><text x="0" y="0" fill="#262626" transform="translate(292.605,274.841) rotate(-0,3,-8)">8</text></g><g font-family="FreeSans" font-size="10" font-style="normal" font-weight="normal" xml:space="preserve"><text x="0" y="0" fill="#262626" transform="translate(323.151,274.841) rotate(-0,3,-8)">9</text></g><polyline fill="none" stroke="#262626" stroke-linecap="butt" stroke-linejoin="miter" stroke-width=".5" points="51.238 259.33 54.297 259.33"/><polyline fill="none" stroke="#262626" stroke-linecap="butt" stroke-linejoin="miter" stroke-width=".5" points="51.238 211.864 54.297 211.864"/><polyline fill="none" stroke="#262626" stroke-linecap="butt" stroke-linejoin="miter" stroke-width=".5" points="51.238 164.398 54.297 164.398"/><polyline fill="none" stroke="#262626" stroke-linecap="butt" stroke-linejoin="miter" stroke-width=".5" points="51.238 116.932 54.297 116.932"/><polyline fill="none" stroke="#262626" stroke-linecap="butt" stroke-linejoin="miter" stroke-width=".5" points="51.238 69.466 54.297 69.466"/><polyline fill="none" stroke="#262626" stroke-linecap="butt" stroke-linejoin="miter" stroke-width=".5" points="51.238 22 54.297 22"/><g font-family="FreeSans" font-size="10" font-style="normal" font-weight="normal" xml:space="preserve"><text x="0" y="0" fill="#262626" transform="translate(40.2307,263.33) rotate(-0,6,-4)">0</text></g><g font-family="FreeSans" font-size="10" font-style="normal" font-weight="normal" xml:space="preserve"><text x="0 6" y="0" fill="#262626" transform="translate(34.2307,215.864) rotate(-0,12,-4)">10</text></g><g font-family="FreeSans" font-size="10" font-style="normal" font-weight="normal" xml:space="preserve"><text x="0 6" y="0" fill="#262626" transform="translate(34.2307,168.398) rotate(-0,12,-4)">20</text></g><g font-family="FreeSans" font-size="10" font-style="normal" font-weight="normal" xml:space="preserve"><text x="0 6" y="0" fill="#262626" transform="translate(34.2307,120.932) rotate(-0,12,-4)">30</text></g><g font-family="FreeSans" font-size="10" font-style="normal" font-weight="normal" xml:space="preserve"><text x="0 6" y="0" fill="#262626" transform="translate(34.2307,73.466) rotate(-0,12,-4)">40</text></g><g font-family="FreeSans" font-size="10" font-style="normal" font-weight="normal" xml:space="preserve"><text x="0 6" y="0" fill="#262626" transform="translate(34.2307,26) rotate(-0,12,-4)">50</text></g><polyline fill="none" stroke="#262626" stroke-dasharray="16 0" stroke-linecap="square" stroke-linejoin="miter" stroke-width=".5" points="51.238 259.33 356.697 259.33"/><polyline fill="none" stroke="#262626" stroke-dasharray="16 0" stroke-linecap="square" stroke-linejoin="miter" stroke-width=".5" points="51.238 259.33 51.238 22"/><g font-family="FreeSans" font-size="11" font-style="normal" font-weight="normal" xml:space="preserve"><text x="0 7 13 17" y="0" fill="#262626" transform="translate(193.968,288.841) rotate(-0,10,-9)">Port</text></g><g font-family="FreeSans" font-size="11" font-style="normal" font-weight="normal" xml:space="preserve"><text x="0 8 14 20 23 25 34 40 43 47 52" y="-3" fill="#262626" transform="translate(1.23072,140.665) rotate(-90,28,0)">Runtime (s)</text></g><g font-family="FreeSans" font-size="11" font-style="normal" font-weight="bold" xml:space="preserve"><text x="0 8 15 22 26 29 39 45 51 54 58 65 69 72 79 86 90 94 100 103 110 114 117 127 133 140 149 156 163 169 173 179 185" y="-3" fill="#000" transform="translate(109.468,12) rotate(-0,94.5,0)">Runtimes for Ports of MySQLParser</text></g><polygon fill="#88085c" points="94.002 259.33 94.002 233.517 69.566 233.517 69.566 259.33" shape-rendering="crispEdges"/><polyline fill="none" stroke="#000" stroke-linecap="butt" stroke-linejoin="miter" stroke-width=".5" points="94.002 233.517 69.566 233.517 69.566 259.33 94.002 259.33 94.002 233.517"/><polyline fill="none" stroke="#000" stroke-linecap="butt" stroke-linejoin="round" stroke-width=".5" points="51.238 259.33 356.697 259.33"/><polygon fill="#e8600a" points="124.548 259.33 124.548 244.026 100.112 244.026 100.112 259.33" shape-rendering="crispEdges"/><polyline fill="none" stroke="#000" stroke-linecap="butt" stroke-linejoin="miter" stroke-width=".5" points="124.548 244.026 100.112 244.026 100.112 259.33 124.548 259.33 124.548 244.026"/><polyline fill="none" stroke="#000" stroke-linecap="butt" stroke-linejoin="round" stroke-width=".5" points="51.238 259.33 356.697 259.33"/><polygon fill="#5468ff" points="155.094 259.33 155.094 246.603 130.658 246.603 130.658 259.33" shape-rendering="crispEdges"/><polyline fill="none" stroke="#000" stroke-linecap="butt" stroke-linejoin="miter" stroke-width=".5" points="155.094 246.603 130.658 246.603 130.658 259.33 155.094 259.33 155.094 246.603"/><polyline fill="none" stroke="#000" stroke-linecap="butt" stroke-linejoin="round" stroke-width=".5" points="51.238 259.33 356.697 259.33"/><polygon fill="#ee243c" points="185.64 259.33 185.64 249.672 161.203 249.672 161.203 259.33" shape-rendering="crispEdges"/><polyline fill="none" stroke="#000" stroke-linecap="butt" stroke-linejoin="miter" stroke-width=".5" points="185.64 249.672 161.203 249.672 161.203 259.33 185.64 259.33 185.64 249.672"/><polyline fill="none" stroke="#000" stroke-linecap="butt" stroke-linejoin="round" stroke-width=".5" points="51.238 259.33 356.697 259.33"/><polygon fill="#fcd34d" points="216.186 259.33 216.186 240.487 191.749 240.487 191.749 259.33" shape-rendering="crispEdges"/><polyline fill="none" stroke="#000" stroke-linecap="butt" stroke-linejoin="miter" stroke-width=".5" points="216.186 240.487 191.749 240.487 191.749 259.33 216.186 259.33 216.186 240.487"/><polyline fill="none" stroke="#000" stroke-linecap="butt" stroke-linejoin="round" stroke-width=".5" points="51.238 259.33 356.697 259.33"/><polygon fill="#7ee787" points="246.732 259.33 246.732 238.832 222.295 238.832 222.295 259.33" shape-rendering="crispEdges"/><polyline fill="none" stroke="#000" stroke-linecap="butt" stroke-linejoin="miter" stroke-width=".5" points="246.732 238.832 222.295 238.832 222.295 259.33 246.732 259.33 246.732 238.832"/><polyline fill="none" stroke="#000" stroke-linecap="butt" stroke-linejoin="round" stroke-width=".5" points="51.238 259.33 356.697 259.33"/><polygon fill="#f17fa2" points="277.278 259.33 277.278 203.404 252.841 203.404 252.841 259.33" shape-rendering="crispEdges"/><polyline fill="none" stroke="#000" stroke-linecap="butt" stroke-linejoin="miter" stroke-width=".5" points="277.278 203.404 252.841 203.404 252.841 259.33 277.278 259.33 277.278 203.404"/><polyline fill="none" stroke="#000" stroke-linecap="butt" stroke-linejoin="round" stroke-width=".5" points="51.238 259.33 356.697 259.33"/><polygon fill="#5bc1d7" points="307.824 259.33 307.824 206.954 283.387 206.954 283.387 259.33" shape-rendering="crispEdges"/><polyline fill="none" stroke="#000" stroke-linecap="butt" stroke-linejoin="miter" stroke-width=".5" points="307.824 206.954 283.387 206.954 283.387 259.33 307.824 259.33 307.824 206.954"/><polyline fill="none" stroke="#000" stroke-linecap="butt" stroke-linejoin="round" stroke-width=".5" points="51.238 259.33 356.697 259.33"/><polygon fill="#56c271" points="338.369 259.33 338.369 44.373 313.933 44.373 313.933 259.33" shape-rendering="crispEdges"/><polyline fill="none" stroke="#000" stroke-linecap="butt" stroke-linejoin="miter" stroke-width=".5" points="338.369 44.373 313.933 44.373 313.933 259.33 338.369 259.33 338.369 44.373"/><polyline fill="none" stroke="#000" stroke-linecap="butt" stroke-linejoin="round" stroke-width=".5" points="51.238 259.33 356.697 259.33"/><polyline fill="none" stroke="#000" stroke-linecap="butt" stroke-linejoin="round" stroke-width="1" points="81.784 233.768 81.784 233.266"/><polyline fill="none" stroke="#000" stroke-linecap="butt" stroke-linejoin="round" stroke-width="1" points="79.341 233.266 84.228 233.266"/><polyline fill="none" stroke="#000" stroke-linecap="butt" stroke-linejoin="round" stroke-width="1" points="79.341 233.768 84.228 233.768"/><polyline fill="none" stroke="#000" stroke-linecap="butt" stroke-linejoin="round" stroke-width="1" points="112.33 244.322 112.33 243.73"/><polyline fill="none" stroke="#000" stroke-linecap="butt" stroke-linejoin="round" stroke-width="1" points="109.886 243.73 114.774 243.73"/><polyline fill="none" stroke="#000" stroke-linecap="butt" stroke-linejoin="round" stroke-width="1" points="109.886 244.322 114.774 244.322"/><polyline fill="none" stroke="#000" stroke-linecap="butt" stroke-linejoin="round" stroke-width="1" points="142.876 246.889 142.876 246.316"/><polyline fill="none" stroke="#000" stroke-linecap="butt" stroke-linejoin="round" stroke-width="1" points="140.432 246.316 145.32 246.316"/><polyline fill="none" stroke="#000" stroke-linecap="butt" stroke-linejoin="round" stroke-width="1" points="140.432 246.889 145.32 246.889"/><polyline fill="none" stroke="#000" stroke-linecap="butt" stroke-linejoin="round" stroke-width="1" points="173.422 249.998 173.422 249.346"/><polyline fill="none" stroke="#000" stroke-linecap="butt" stroke-linejoin="round" stroke-width="1" points="170.978 249.346 175.865 249.346"/><polyline fill="none" stroke="#000" stroke-linecap="butt" stroke-linejoin="round" stroke-width="1" points="170.978 249.998 175.865 249.998"/><polyline fill="none" stroke="#000" stroke-linecap="butt" stroke-linejoin="round" stroke-width="1" points="203.968 240.595 203.968 240.379"/><polyline fill="none" stroke="#000" stroke-linecap="butt" stroke-linejoin="round" stroke-width="1" points="201.524 240.379 206.411 240.379"/><polyline fill="none" stroke="#000" stroke-linecap="butt" stroke-linejoin="round" stroke-width="1" points="201.524 240.595 206.411 240.595"/><polyline fill="none" stroke="#000" stroke-linecap="butt" stroke-linejoin="round" stroke-width="1" points="234.513 252.97 234.513 224.694"/><polyline fill="none" stroke="#000" stroke-linecap="butt" stroke-linejoin="round" stroke-width="1" points="232.07 224.694 236.957 224.694"/><polyline fill="none" stroke="#000" stroke-linecap="butt" stroke-linejoin="round" stroke-width="1" points="232.07 252.97 236.957 252.97"/><polyline fill="none" stroke="#000" stroke-linecap="butt" stroke-linejoin="round" stroke-width="1" points="265.059 207.373 265.059 199.435"/><polyline fill="none" stroke="#000" stroke-linecap="butt" stroke-linejoin="round" stroke-width="1" points="262.616 199.435 267.503 199.435"/><polyline fill="none" stroke="#000" stroke-linecap="butt" stroke-linejoin="round" stroke-width="1" points="262.616 207.373 267.503 207.373"/><polyline fill="none" stroke="#000" stroke-linecap="butt" stroke-linejoin="round" stroke-width="1" points="295.605 207.236 295.605 206.673"/><polyline fill="none" stroke="#000" stroke-linecap="butt" stroke-linejoin="round" stroke-width="1" points="293.162 206.673 298.049 206.673"/><polyline fill="none" stroke="#000" stroke-linecap="butt" stroke-linejoin="round" stroke-width="1" points="293.162 207.236 298.049 207.236"/><polyline fill="none" stroke="#000" stroke-linecap="butt" stroke-linejoin="round" stroke-width="1" points="326.151 52.346 326.151 36.4"/><polyline fill="none" stroke="#000" stroke-linecap="butt" stroke-linejoin="round" stroke-width="1" points="323.707 36.4 328.595 36.4"/><polyline fill="none" stroke="#000" stroke-linecap="butt" stroke-linejoin="round" stroke-width="1" points="323.707 52.346 328.595 52.346"/></g><clipPath id="cp00394291"><polygon points="0 291 394 291 394 0 0 0"/></clipPath><g clip-path="url(#cp00394291)"><polygon fill="#fff" points="59.763 160.052 137.863 160.052 137.863 30.525 59.763 30.525" shape-rendering="crispEdges"/><polyline fill="none" stroke="#262626" stroke-dasharray="16 0" stroke-linecap="square" stroke-linejoin="miter" stroke-width=".5" points="59.763 160.052 137.863 160.052"/><polyline fill="none" stroke="#262626" stroke-dasharray="16 0" stroke-linecap="square" stroke-linejoin="miter" stroke-width=".5" points="59.763 30.525 137.863 30.525"/><polyline fill="none" stroke="#262626" stroke-dasharray="16 0" stroke-linecap="square" stroke-linejoin="miter" stroke-width=".5" points="59.763 160.052 59.763 30.525"/><polyline fill="none" stroke="#262626" stroke-dasharray="16 0" stroke-linecap="square" stroke-linejoin="miter" stroke-width=".5" points="137.863 160.052 137.863 30.525"/><polygon fill="#88085c" points="85.338 44.263 85.338 35.312 64.026 35.312 64.026 44.263" shape-rendering="crispEdges"/><polyline fill="none" stroke="#000" stroke-linecap="butt" stroke-linejoin="miter" stroke-width=".5" points="85.338 35.312 64.026 35.312 64.026 44.263 85.338 44.263 85.338 35.312"/><g font-family="FreeSans" font-size="9" font-style="normal" font-weight="normal" xml:space="preserve"><text x="0 6 11 14 16 19 24 29" y="-2" fill="#000" transform="translate(89.6002,44.7873) rotate(-0,-0,-5)">Antlr4ng</text></g><polygon fill="#e8600a" points="85.338 58.525 85.338 49.574 64.026 49.574 64.026 58.525" shape-rendering="crispEdges"/><polyline fill="none" stroke="#000" stroke-linecap="butt" stroke-linejoin="miter" stroke-width=".5" points="85.338 49.574 64.026 49.574 64.026 58.525 85.338 58.525 85.338 49.574"/><g font-family="FreeSans" font-size="9" font-style="normal" font-weight="normal" xml:space="preserve"><text x="0 6 12 17 22 25" y="-2" fill="#000" transform="translate(89.6002,59.0498) rotate(-0,-0,-5)">CSharp</text></g><polygon fill="#5468ff" points="85.338 72.788 85.338 63.837 64.026 63.837 64.026 72.788" shape-rendering="crispEdges"/><polyline fill="none" stroke="#000" stroke-linecap="butt" stroke-linejoin="miter" stroke-width=".5" points="85.338 63.837 64.026 63.837 64.026 72.788 85.338 72.788 85.338 63.837"/><g font-family="FreeSans" font-size="9" font-style="normal" font-weight="normal" xml:space="preserve"><text x="0 6 11" y="-2" fill="#000" transform="translate(89.6002,73.3122) rotate(-0,-0,-5)">Cpp</text></g><polygon fill="#ee243c" points="85.338 86.526 85.338 77.575 64.026 77.575 64.026 86.526" shape-rendering="crispEdges"/><polyline fill="none" stroke="#000" stroke-linecap="butt" stroke-linejoin="miter" stroke-width=".5" points="85.338 77.575 64.026 77.575 64.026 86.526 85.338 86.526 85.338 77.575"/><g font-family="FreeSans" font-size="9" font-style="normal" font-weight="normal" xml:space="preserve"><text x="0 6 11 14" y="0" fill="#000" transform="translate(89.6002,86.0502) rotate(-0,-0,-4)">Dart</text></g><polygon fill="#fcd34d" points="85.338 99.764 85.338 90.813 64.026 90.813 64.026 99.764" shape-rendering="crispEdges"/><polyline fill="none" stroke="#000" stroke-linecap="butt" stroke-linejoin="miter" stroke-width=".5" points="85.338 90.813 64.026 90.813 64.026 99.764 85.338 99.764 85.338 90.813"/><g font-family="FreeSans" font-size="9" font-style="normal" font-weight="normal" xml:space="preserve"><text x="0 7" y="-1" fill="#000" transform="translate(89.6002,99.7882) rotate(-0,-0,-4.5)">Go</text></g><polygon fill="#7ee787" points="85.338 113.002 85.338 104.051 64.026 104.051 64.026 113.002" shape-rendering="crispEdges"/><polyline fill="none" stroke="#000" stroke-linecap="butt" stroke-linejoin="miter" stroke-width=".5" points="85.338 104.051 64.026 104.051 64.026 113.002 85.338 113.002 85.338 104.051"/><g font-family="FreeSans" font-size="9" font-style="normal" font-weight="normal" xml:space="preserve"><text x="0 5 10 14" y="0" fill="#000" transform="translate(89.6002,112.526) rotate(-0,-0,-4)">Java</text></g><polygon fill="#f17fa2" points="85.338 126.74 85.338 117.789 64.026 117.789 64.026 126.74" shape-rendering="crispEdges"/><polyline fill="none" stroke="#000" stroke-linecap="butt" stroke-linejoin="miter" stroke-width=".5" points="85.338 117.789 64.026 117.789 64.026 126.74 85.338 126.74 85.338 117.789"/><g font-family="FreeSans" font-size="9" font-style="normal" font-weight="normal" xml:space="preserve"><text x="0 5 10 14 19 25 30 33 35 40" y="-2" fill="#000" transform="translate(89.6002,127.264) rotate(-0,-0,-5)">JavaScript</text></g><polygon fill="#5bc1d7" points="85.338 141.002 85.338 132.051 64.026 132.051 64.026 141.002" shape-rendering="crispEdges"/><polyline fill="none" stroke="#000" stroke-linecap="butt" stroke-linejoin="miter" stroke-width=".5" points="85.338 132.051 64.026 132.051 64.026 141.002 85.338 141.002 85.338 132.051"/><g font-family="FreeSans" font-size="9" font-style="normal" font-weight="normal" xml:space="preserve"><text x="0 6 10 15 20 26 31 34 36 41" y="-2" fill="#000" transform="translate(89.6002,141.527) rotate(-0,-0,-5)">TypeScript</text></g><polygon fill="#56c271" points="85.338 155.265 85.338 146.314 64.026 146.314 64.026 155.265" shape-rendering="crispEdges"/><polyline fill="none" stroke="#000" stroke-linecap="butt" stroke-linejoin="miter" stroke-width=".5" points="85.338 146.314 64.026 146.314 64.026 155.265 85.338 155.265 85.338 146.314"/><g font-family="FreeSans" font-size="9" font-style="normal" font-weight="normal" xml:space="preserve"><text x="0 6 10 13 18 23 28" y="-2" fill="#000" transform="translate(89.6002,155.789) rotate(-0,-0,-5)">Python3</text></g></g></g></svg>