<svg xmlns="http://www.w3.org/2000/svg" xmlns:xlink="http://www.w3.org/1999/xlink" width="394pt" height="388" viewBox="0 0 394 291"><title>Figure 1</title><desc>Creator: GL2PS 1.4.2, (C) 1999-2020 C. Geuzaine For: Octave CreationDate: Fri Dec 20 07:20:45 2024</desc><polygon fill="#fff" points="0 0 394 0 394 291 0 291"/><g><polygon fill="#fff" points="0 291 394 291 394 0 0 0" shape-rendering="crispEdges"/><clipPath id="cp00394291"><polygon points="0 291 394 291 394 0 0 0"/></clipPath><g clip-path="url(#cp00394291)"><polygon fill="#fff" points="51.238 259.33 356.697 259.33 356.697 21.854 51.238 21.854" shape-rendering="crispEdges"/><polyline fill="none" stroke="#262626" stroke-linecap="butt" stroke-linejoin="miter" stroke-width=".5" points="81.784 259.33 81.784 256.27"/><polyline fill="none" stroke="#262626" stroke-linecap="butt" stroke-linejoin="miter" stroke-width=".5" points="112.33 259.33 112.33 256.27"/><polyline fill="none" stroke="#262626" stroke-linecap="butt" stroke-linejoin="miter" stroke-width=".5" points="142.876 259.33 142.876 256.27"/><polyline fill="none" stroke="#262626" stroke-linecap="butt" stroke-linejoin="miter" stroke-width=".5" points="173.422 259.33 173.422 256.27"/><polyline fill="none" stroke="#262626" stroke-linecap="butt" stroke-linejoin="miter" stroke-width=".5" points="203.968 259.33 203.968 256.27"/><polyline fill="none" stroke="#262626" stroke-linecap="butt" stroke-linejoin="miter" stroke-width=".5" points="234.513 259.33 234.513 256.27"/><polyline fill="none" stroke="#262626" stroke-linecap="butt" stroke-linejoin="miter" stroke-width=".5" points="265.059 259.33 265.059 256.27"/><polyline fill="none" stroke="#262626" stroke-linecap="butt" stroke-linejoin="miter" stroke-width=".5" points="295.605 259.33 295.605 256.27"/><polyline fill="none" stroke="#262626" stroke-linecap="butt" stroke-linejoin="miter" stroke-width=".5" points="326.151 259.33 326.151 256.27"/><g font-family="FreeSans" font-size="6" font-style="normal" font-weight="normal" xml:space="preserve"><text x="0" y="0" fill="#262626" transform="translate(80.2841,269.839) rotate(-0,1.5,-6)">1</text></g><g font-family="FreeSans" font-size="6" font-style="normal" font-weight="normal" xml:space="preserve"><text x="0" y="0" fill="#262626" transform="translate(110.83,269.839) rotate(-0,1.5,-6)">2</text></g><g font-family="FreeSans" font-size="6" font-style="normal" font-weight="normal" xml:space="preserve"><text x="0" y="0" fill="#262626" transform="translate(141.376,269.839) rotate(-0,1.5,-6)">3</text></g><g font-family="FreeSans" font-size="6" font-style="normal" font-weight="normal" xml:space="preserve"><text x="0" y="0" fill="#262626" transform="translate(171.922,269.839) rotate(-0,1.5,-6)">4</text></g><g font-family="FreeSans" font-size="6" font-style="normal" font-weight="normal" xml:space="preserve"><text x="0" y="0" fill="#262626" transform="translate(202.468,269.839) rotate(-0,1.5,-6)">5</text></g><g font-family="FreeSans" font-size="6" font-style="normal" font-weight="normal" xml:space="preserve"><text x="0" y="0" fill="#262626" transform="translate(233.013,269.839) rotate(-0,1.5,-6)">6</text></g><g font-family="FreeSans" font-size="6" font-style="normal" font-weight="normal" xml:space="preserve"><text x="0" y="0" fill="#262626" transform="translate(263.559,269.839) rotate(-0,1.5,-6)">7</text></g><g font-family="FreeSans" font-size="6" font-style="normal" font-weight="normal" xml:space="preserve"><text x="0" y="0" fill="#262626" transform="translate(294.105,269.839) rotate(-0,1.5,-6)">8</text></g><g font-family="FreeSans" font-size="6" font-style="normal" font-weight="normal" xml:space="preserve"><text x="0" y="0" fill="#262626" transform="translate(324.651,269.839) rotate(-0,1.5,-6)">9</text></g><polyline fill="none" stroke="#262626" stroke-linecap="butt" stroke-linejoin="miter" stroke-width=".5" points="51.238 259.33 54.297 259.33"/><polyline fill="none" stroke="#262626" stroke-linecap="butt" stroke-linejoin="miter" stroke-width=".5" points="51.238 211.835 54.297 211.835"/><polyline fill="none" stroke="#262626" stroke-linecap="butt" stroke-linejoin="miter" stroke-width=".5" points="51.238 164.34 54.297 164.34"/><polyline fill="none" stroke="#262626" stroke-linecap="butt" stroke-linejoin="miter" stroke-width=".5" points="51.238 116.844 54.297 116.844"/><polyline fill="none" stroke="#262626" stroke-linecap="butt" stroke-linejoin="miter" stroke-width=".5" points="51.238 69.349 54.297 69.349"/><polyline fill="none" stroke="#262626" stroke-linecap="butt" stroke-linejoin="miter" stroke-width=".5" points="51.238 21.854 54.297 21.854"/><g font-family="FreeSans" font-size="6" font-style="normal" font-weight="normal" xml:space="preserve"><text x="0" y="0" fill="#262626" transform="translate(45.2337,262.33) rotate(-0,3,-3)">0</text></g><g font-family="FreeSans" font-size="6" font-style="normal" font-weight="normal" xml:space="preserve"><text x="0 3" y="0" fill="#262626" transform="translate(42.2337,214.835) rotate(-0,6,-3)">20</text></g><g font-family="FreeSans" font-size="6" font-style="normal" font-weight="normal" xml:space="preserve"><text x="0 3" y="0" fill="#262626" transform="translate(42.2337,167.34) rotate(-0,6,-3)">40</text></g><g font-family="FreeSans" font-size="6" font-style="normal" font-weight="normal" xml:space="preserve"><text x="0 3" y="0" fill="#262626" transform="translate(42.2337,119.844) rotate(-0,6,-3)">60</text></g><g font-family="FreeSans" font-size="6" font-style="normal" font-weight="normal" xml:space="preserve"><text x="0 3" y="0" fill="#262626" transform="translate(42.2337,72.349) rotate(-0,6,-3)">80</text></g><g font-family="FreeSans" font-size="6" font-style="normal" font-weight="normal" xml:space="preserve"><text x="0 3 6" y="0" fill="#262626" transform="translate(39.2337,24.8537) rotate(-0,9,-3)">100</text></g><polyline fill="none" stroke="#262626" stroke-dasharray="16 0" stroke-linecap="square" stroke-linejoin="miter" stroke-width=".5" points="51.238 259.33 356.697 259.33"/><polyline fill="none" stroke="#262626" stroke-dasharray="16 0" stroke-linecap="square" stroke-linejoin="miter" stroke-width=".5" points="51.238 259.33 51.238 21.854"/><g font-family="FreeSans" font-size="6.6" font-style="normal" font-weight="normal" xml:space="preserve"><text x="0 4 8 10 14 18" y="-2" fill="#262626" transform="translate(193.968,282.839) rotate(-0,10,-8)">Target</text></g><g font-family="FreeSans" font-size="6.6" font-style="normal" font-weight="normal" xml:space="preserve"><text x="0 5 9 13 15 16 21 25 27 29 32" y="-2" fill="#262626" transform="translate(17.2337,140.592) rotate(-90,17,0)">Runtime (s)</text></g><g font-family="FreeSans" font-size="6.6" font-style="normal" font-weight="bold" xml:space="preserve"><text x="0 5 9 15 19 23 26 28 32 36 40 42 46 48 50 55 59 63 65 67 73 77 81 83 85 89 92 94 98 100 104 108 110 114 118 121 125 129" y="-2" fill="#000" transform="translate(137.968,11.8537) rotate(-0,66,0)">Comparison of Runtimes for PlSqlParser</text></g><polygon fill="#88085c" points="94.002 259.33 94.002 237.739 69.566 237.739 69.566 259.33" shape-rendering="crispEdges"/><polyline fill="none" stroke="#000" stroke-linecap="butt" stroke-linejoin="miter" stroke-width=".5" points="94.002 237.739 69.566 237.739 69.566 259.33 94.002 259.33 94.002 237.739"/><polyline fill="none" stroke="#000" stroke-linecap="butt" stroke-linejoin="round" stroke-width=".5" points="51.238 259.33 356.697 259.33"/><polygon fill="#e8600a" points="124.548 259.33 124.548 248.623 100.112 248.623 100.112 259.33" shape-rendering="crispEdges"/><polyline fill="none" stroke="#000" stroke-linecap="butt" stroke-linejoin="miter" stroke-width=".5" points="124.548 248.623 100.112 248.623 100.112 259.33 124.548 259.33 124.548 248.623"/><polyline fill="none" stroke="#000" stroke-linecap="butt" stroke-linejoin="round" stroke-width=".5" points="51.238 259.33 356.697 259.33"/><polygon fill="#5468ff" points="155.094 259.33 155.094 248.495 130.658 248.495 130.658 259.33" shape-rendering="crispEdges"/><polyline fill="none" stroke="#000" stroke-linecap="butt" stroke-linejoin="miter" stroke-width=".5" points="155.094 248.495 130.658 248.495 130.658 259.33 155.094 259.33 155.094 248.495"/><polyline fill="none" stroke="#000" stroke-linecap="butt" stroke-linejoin="round" stroke-width=".5" points="51.238 259.33 356.697 259.33"/><polygon fill="#ee243c" points="185.64 259.33 185.64 250.039 161.203 250.039 161.203 259.33" shape-rendering="crispEdges"/><polyline fill="none" stroke="#000" stroke-linecap="butt" stroke-linejoin="miter" stroke-width=".5" points="185.64 250.039 161.203 250.039 161.203 259.33 185.64 259.33 185.64 250.039"/><polyline fill="none" stroke="#000" stroke-linecap="butt" stroke-linejoin="round" stroke-width=".5" points="51.238 259.33 356.697 259.33"/><polygon fill="#fcd34d" points="216.186 259.33 216.186 244.698 191.749 244.698 191.749 259.33" shape-rendering="crispEdges"/><polyline fill="none" stroke="#000" stroke-linecap="butt" stroke-linejoin="miter" stroke-width=".5" points="216.186 244.698 191.749 244.698 191.749 259.33 216.186 259.33 216.186 244.698"/><polyline fill="none" stroke="#000" stroke-linecap="butt" stroke-linejoin="round" stroke-width=".5" points="51.238 259.33 356.697 259.33"/><polygon fill="#7ee787" points="246.732 259.33 246.732 246.611 222.295 246.611 222.295 259.33" shape-rendering="crispEdges"/><polyline fill="none" stroke="#000" stroke-linecap="butt" stroke-linejoin="miter" stroke-width=".5" points="246.732 246.611 222.295 246.611 222.295 259.33 246.732 259.33 246.732 246.611"/><polyline fill="none" stroke="#000" stroke-linecap="butt" stroke-linejoin="round" stroke-width=".5" points="51.238 259.33 356.697 259.33"/><polygon fill="#f17fa2" points="277.278 259.33 277.278 210.797 252.841 210.797 252.841 259.33" shape-rendering="crispEdges"/><polyline fill="none" stroke="#000" stroke-linecap="butt" stroke-linejoin="miter" stroke-width=".5" points="277.278 210.797 252.841 210.797 252.841 259.33 277.278 259.33 277.278 210.797"/><polyline fill="none" stroke="#000" stroke-linecap="butt" stroke-linejoin="round" stroke-width=".5" points="51.238 259.33 356.697 259.33"/><polygon fill="#5bc1d7" points="307.824 259.33 307.824 211.784 283.387 211.784 283.387 259.33" shape-rendering="crispEdges"/><polyline fill="none" stroke="#000" stroke-linecap="butt" stroke-linejoin="miter" stroke-width=".5" points="307.824 211.784 283.387 211.784 283.387 259.33 307.824 259.33 307.824 211.784"/><polyline fill="none" stroke="#000" stroke-linecap="butt" stroke-linejoin="round" stroke-width=".5" points="51.238 259.33 356.697 259.33"/><polygon fill="#56c271" points="338.369 259.33 338.369 65.22 313.933 65.22 313.933 259.33" shape-rendering="crispEdges"/><polyline fill="none" stroke="#000" stroke-linecap="butt" stroke-linejoin="miter" stroke-width=".5" points="338.369 65.22 313.933 65.22 313.933 259.33 338.369 259.33 338.369 65.22"/><polyline fill="none" stroke="#000" stroke-linecap="butt" stroke-linejoin="round" stroke-width=".5" points="51.238 259.33 356.697 259.33"/><polyline fill="none" stroke="#000" stroke-linecap="butt" stroke-linejoin="round" stroke-width="1" points="81.784 239.648 81.784 235.829"/><polyline fill="none" stroke="#000" stroke-linecap="butt" stroke-linejoin="round" stroke-width="1" points="79.341 235.829 84.228 235.829"/><polyline fill="none" stroke="#000" stroke-linecap="butt" stroke-linejoin="round" stroke-width="1" points="79.341 239.648 84.228 239.648"/><polyline fill="none" stroke="#000" stroke-linecap="butt" stroke-linejoin="round" stroke-width="1" points="112.33 248.888 112.33 248.359"/><polyline fill="none" stroke="#000" stroke-linecap="butt" stroke-linejoin="round" stroke-width="1" points="109.886 248.359 114.774 248.359"/><polyline fill="none" stroke="#000" stroke-linecap="butt" stroke-linejoin="round" stroke-width="1" points="109.886 248.888 114.774 248.888"/><polyline fill="none" stroke="#000" stroke-linecap="butt" stroke-linejoin="round" stroke-width="1" points="142.876 248.818 142.876 248.171"/><polyline fill="none" stroke="#000" stroke-linecap="butt" stroke-linejoin="round" stroke-width="1" points="140.432 248.171 145.32 248.171"/><polyline fill="none" stroke="#000" stroke-linecap="butt" stroke-linejoin="round" stroke-width="1" points="140.432 248.818 145.32 248.818"/><polyline fill="none" stroke="#000" stroke-linecap="butt" stroke-linejoin="round" stroke-width="1" points="173.422 250.242 173.422 249.835"/><polyline fill="none" stroke="#000" stroke-linecap="butt" stroke-linejoin="round" stroke-width="1" points="170.978 249.835 175.865 249.835"/><polyline fill="none" stroke="#000" stroke-linecap="butt" stroke-linejoin="round" stroke-width="1" points="170.978 250.242 175.865 250.242"/><polyline fill="none" stroke="#000" stroke-linecap="butt" stroke-linejoin="round" stroke-width="1" points="203.968 244.828 203.968 244.568"/><polyline fill="none" stroke="#000" stroke-linecap="butt" stroke-linejoin="round" stroke-width="1" points="201.524 244.568 206.411 244.568"/><polyline fill="none" stroke="#000" stroke-linecap="butt" stroke-linejoin="round" stroke-width="1" points="201.524 244.828 206.411 244.828"/><polyline fill="none" stroke="#000" stroke-linecap="butt" stroke-linejoin="round" stroke-width="1" points="234.513 255.56 234.513 237.662"/><polyline fill="none" stroke="#000" stroke-linecap="butt" stroke-linejoin="round" stroke-width="1" points="232.07 237.662 236.957 237.662"/><polyline fill="none" stroke="#000" stroke-linecap="butt" stroke-linejoin="round" stroke-width="1" points="232.07 255.56 236.957 255.56"/><polyline fill="none" stroke="#000" stroke-linecap="butt" stroke-linejoin="round" stroke-width="1" points="265.059 211.956 265.059 209.639"/><polyline fill="none" stroke="#000" stroke-linecap="butt" stroke-linejoin="round" stroke-width="1" points="262.616 209.639 267.503 209.639"/><polyline fill="none" stroke="#000" stroke-linecap="butt" stroke-linejoin="round" stroke-width="1" points="262.616 211.956 267.503 211.956"/><polyline fill="none" stroke="#000" stroke-linecap="butt" stroke-linejoin="round" stroke-width="1" points="295.605 212.501 295.605 211.067"/><polyline fill="none" stroke="#000" stroke-linecap="butt" stroke-linejoin="round" stroke-width="1" points="293.162 211.067 298.049 211.067"/><polyline fill="none" stroke="#000" stroke-linecap="butt" stroke-linejoin="round" stroke-width="1" points="293.162 212.501 298.049 212.501"/><polyline fill="none" stroke="#000" stroke-linecap="butt" stroke-linejoin="round" stroke-width="1" points="326.151 68.032 326.151 62.408"/><polyline fill="none" stroke="#000" stroke-linecap="butt" stroke-linejoin="round" stroke-width="1" points="323.707 62.408 328.595 62.408"/><polyline fill="none" stroke="#000" stroke-linecap="butt" stroke-linejoin="round" stroke-width="1" points="323.707 68.032 328.595 68.032"/></g><clipPath id="cp00394291"><polygon points="0 291 394 291 394 0 0 0"/></clipPath><g clip-path="url(#cp00394291)"><polygon fill="#fff" points="59.763 149.727 120.863 149.727 120.863 30.379 59.763 30.379" shape-rendering="crispEdges"/><polyline fill="none" stroke="#262626" stroke-dasharray="16 0" stroke-linecap="square" stroke-linejoin="miter" stroke-width=".5" points="59.763 149.727 120.863 149.727"/><polyline fill="none" stroke="#262626" stroke-dasharray="16 0" stroke-linecap="square" stroke-linejoin="miter" stroke-width=".5" points="59.763 30.379 120.863 30.379"/><polyline fill="none" stroke="#262626" stroke-dasharray="16 0" stroke-linecap="square" stroke-linejoin="miter" stroke-width=".5" points="59.763 149.727 59.763 30.379"/><polyline fill="none" stroke="#262626" stroke-dasharray="16 0" stroke-linecap="square" stroke-linejoin="miter" stroke-width=".5" points="120.863 149.727 120.863 30.379"/><polygon fill="#88085c" points="85.338 41.589 85.338 36.218 64.026 36.218 64.026 41.589" shape-rendering="crispEdges"/><polyline fill="none" stroke="#000" stroke-linecap="butt" stroke-linejoin="miter" stroke-width=".5" points="85.338 36.218 64.026 36.218 64.026 41.589 85.338 41.589 85.338 36.218"/><g font-family="FreeSans" font-size="5.4" font-style="normal" font-weight="normal" xml:space="preserve"><text x="0 4 7 9 10 12 15 18" y="-1" fill="#000" transform="translate(89.6002,41.9034) rotate(-0,-0,-3)">Antlr4ng</text></g><polygon fill="#e8600a" points="85.338 54.376 85.338 49.005 64.026 49.005 64.026 54.376" shape-rendering="crispEdges"/><polyline fill="none" stroke="#000" stroke-linecap="butt" stroke-linejoin="miter" stroke-width=".5" points="85.338 49.005 64.026 49.005 64.026 54.376 85.338 54.376 85.338 49.005"/><g font-family="FreeSans" font-size="5.4" font-style="normal" font-weight="normal" xml:space="preserve"><text x="0 4 8 11 14 16" y="-2" fill="#000" transform="translate(89.6002,55.1908) rotate(-0,-0,-3.5)">CSharp</text></g><polygon fill="#5468ff" points="85.338 67.163 85.338 61.793 64.026 61.793 64.026 67.163" shape-rendering="crispEdges"/><polyline fill="none" stroke="#000" stroke-linecap="butt" stroke-linejoin="miter" stroke-width=".5" points="85.338 61.793 64.026 61.793 64.026 67.163 85.338 67.163 85.338 61.793"/><g font-family="FreeSans" font-size="5.4" font-style="normal" font-weight="normal" xml:space="preserve"><text x="0 4 7" y="-2" fill="#000" transform="translate(89.6002,67.9781) rotate(-0,-0,-3.5)">Cpp</text></g><polygon fill="#ee243c" points="85.338 79.951 85.338 74.58 64.026 74.58 64.026 79.951" shape-rendering="crispEdges"/><polyline fill="none" stroke="#000" stroke-linecap="butt" stroke-linejoin="miter" stroke-width=".5" points="85.338 74.58 64.026 74.58 64.026 79.951 85.338 79.951 85.338 74.58"/><g font-family="FreeSans" font-size="5.4" font-style="normal" font-weight="normal" xml:space="preserve"><text x="0 4 7 9" y="0" fill="#000" transform="translate(89.6002,79.7654) rotate(-0,-0,-2.5)">Dart</text></g><polygon fill="#fcd34d" points="85.338 92.738 85.338 87.367 64.026 87.367 64.026 92.738" shape-rendering="crispEdges"/><polyline fill="none" stroke="#000" stroke-linecap="butt" stroke-linejoin="miter" stroke-width=".5" points="85.338 87.367 64.026 87.367 64.026 92.738 85.338 92.738 85.338 87.367"/><g font-family="FreeSans" font-size="5.4" font-style="normal" font-weight="normal" xml:space="preserve"><text x="0 4" y="-1" fill="#000" transform="translate(89.6002,93.0527) rotate(-0,-0,-3)">Go</text></g><polygon fill="#7ee787" points="85.338 105.525 85.338 100.155 64.026 100.155 64.026 105.525" shape-rendering="crispEdges"/><polyline fill="none" stroke="#000" stroke-linecap="butt" stroke-linejoin="miter" stroke-width=".5" points="85.338 100.155 64.026 100.155 64.026 105.525 85.338 105.525 85.338 100.155"/><g font-family="FreeSans" font-size="5.4" font-style="normal" font-weight="normal" xml:space="preserve"><text x="0 3 6 9" y="0" fill="#000" transform="translate(89.6002,105.34) rotate(-0,-0,-2.5)">Java</text></g><polygon fill="#f17fa2" points="85.338 118.313 85.338 112.942 64.026 112.942 64.026 118.313" shape-rendering="crispEdges"/><polyline fill="none" stroke="#000" stroke-linecap="butt" stroke-linejoin="miter" stroke-width=".5" points="85.338 112.942 64.026 112.942 64.026 118.313 85.338 118.313 85.338 112.942"/><g font-family="FreeSans" font-size="5.4" font-style="normal" font-weight="normal" xml:space="preserve"><text x="0 3 6 9 12 16 19 21 22 25" y="-2" fill="#000" transform="translate(89.6002,119.127) rotate(-0,-0,-3.5)">JavaScript</text></g><polygon fill="#5bc1d7" points="85.338 131.1 85.338 125.729 64.026 125.729 64.026 131.1" shape-rendering="crispEdges"/><polyline fill="none" stroke="#000" stroke-linecap="butt" stroke-linejoin="miter" stroke-width=".5" points="85.338 125.729 64.026 125.729 64.026 131.1 85.338 131.1 85.338 125.729"/><g font-family="FreeSans" font-size="5.4" font-style="normal" font-weight="normal" xml:space="preserve"><text x="0 3 6 9 12 16 19 21 22 25" y="-2" fill="#000" transform="translate(89.6002,131.915) rotate(-0,-0,-3.5)">TypeScript</text></g><polygon fill="#56c271" points="85.338 143.887 85.338 138.517 64.026 138.517 64.026 143.887" shape-rendering="crispEdges"/><polyline fill="none" stroke="#000" stroke-linecap="butt" stroke-linejoin="miter" stroke-width=".5" points="85.338 138.517 64.026 138.517 64.026 143.887 85.338 143.887 85.338 138.517"/><g font-family="FreeSans" font-size="5.4" font-style="normal" font-weight="normal" xml:space="preserve"><text x="0 4 7 9 12 15 18" y="-1" fill="#000" transform="translate(89.6002,144.202) rotate(-0,-0,-3)">Python3</text></g></g></g></svg>